<?xml version="1.0" encoding="utf-8"?>
<!-- Generator: Adobe Illustrator 25.4.1, SVG Export Plug-In . SVG Version: 6.00 Build 0)  -->
<svg version="1.1" id="Logo_x5F_Vector" xmlns="http://www.w3.org/2000/svg" xmlns:xlink="http://www.w3.org/1999/xlink" x="0px"
	 y="0px" viewBox="0 0 437.708 293.074" style="enable-background:new 0 0 437.708 293.074;" xml:space="preserve">
<linearGradient id="SVGID_1_" gradientUnits="userSpaceOnUse" x1="94.7681" y1="152.4642" x2="325.2907" y2="1.7005">
	<stop  offset="0.0022" style="stop-color:#2EDECC"/>
	<stop  offset="1" style="stop-color:#23A799"/>
</linearGradient>
<path style="fill:url(#SVGID_1_);" d="M130.795,32.386v128.311c0.014,13.654,7.846,19.649,21.416,20.022h20.602V49.447h66.835
	c15.365,0,28.938,14.257,29.52,31.948c0.869,26.416-19.806,37.002-33.347,37.002h-29.59c-11.276,1.076-17.733,6.98-18.542,18.542
	v43.781h32.846v-25.09c13.865,0,9.207,0,23.072,0c12.993,0.111,67.784-20.203,67.784-74.235c0-64.074-46.731-71.992-56.374-71.992
	H153.778C137.89,9.24,130.864,17.505,130.795,32.386z"/>
<g>
	<path style="fill:#162836;stroke:#162836;stroke-miterlimit:10;" d="M61.467,218.865c14.169,0,19.911,6.575,19.911,18.984v6.945
		c0,12.502-5.742,19.355-19.911,19.355H23.129v17.503c0,1.389-0.648,2.037-2.038,2.037H11.09c-1.389,0-2.037-0.648-2.037-2.037
		v-60.009c0-1.852,0.926-2.778,2.778-2.778H61.467z M58.597,251.37c6.297,0,8.612-2.5,8.612-7.964v-3.52
		c0-5.556-2.315-8.057-8.612-8.057H24.332c-0.833,0-1.204,0.371-1.204,1.111v18.429H58.597z"/>
	<path style="fill:#162836;stroke:#162836;stroke-miterlimit:10;" d="M131.386,232.848c16.391,0,22.04,5.094,22.04,18.707v24.726
		c0,5.927-1.389,7.408-6.853,7.408h-44.08c-10.65,0-14.261-3.611-14.261-13.15v-4.444c0-8.612,4.26-12.78,14.261-12.78h37.783
		v-0.926c0-5.927-2.223-8.057-10.187-8.057H91.473c-1.111,0-1.667-0.556-1.667-1.667v-8.149c0-1.111,0.556-1.667,1.667-1.667
		H131.386z M140.276,269.613v-6.76h-33.894c-3.982,0-5.094,1.111-5.094,3.889v1.945c0,3.148,1.111,3.981,5.094,3.981h31.022
		C139.442,272.669,140.276,271.836,140.276,269.613z"/>
	<path style="fill:#162836;stroke:#162836;stroke-miterlimit:10;" d="M174.54,214.049c1.389,0,2.037,0.648,2.037,2.037v8.798
		c0,1.39-0.648,2.13-2.037,2.13h-9.076c-1.389,0-2.037-0.74-2.037-2.13v-8.798c0-1.389,0.648-2.037,2.037-2.037H174.54z
		 M174.54,232.848c1.296,0,2.037,0.741,2.037,2.038v46.766c0,1.389-0.741,2.037-2.037,2.037h-9.076
		c-1.389,0-2.037-0.648-2.037-2.037v-46.766c0-1.297,0.648-2.038,2.037-2.038H174.54z"/>
	<path style="fill:#162836;stroke:#162836;stroke-miterlimit:10;" d="M229.454,232.848c16.392,0,22.04,5.094,22.04,18.707v24.726
		c0,5.927-1.389,7.408-6.853,7.408h-44.08c-10.649,0-14.261-3.611-14.261-13.15v-4.444c0-8.612,4.26-12.78,14.261-12.78h37.783
		v-0.926c0-5.927-2.223-8.057-10.187-8.057h-38.617c-1.111,0-1.667-0.556-1.667-1.667v-8.149c0-1.111,0.556-1.667,1.667-1.667
		H229.454z M238.345,269.613v-6.76h-33.894c-3.982,0-5.094,1.111-5.094,3.889v1.945c0,3.148,1.111,3.981,5.094,3.981h31.022
		C237.511,272.669,238.345,271.836,238.345,269.613z"/>
	<path style="fill:#162836;stroke:#162836;stroke-miterlimit:10;" d="M272.331,214.235c1.389,0,2.037,0.648,2.037,2.037v16.576
		h34.728c16.206,0,22.04,4.908,22.04,18.707v13.428c0,13.798-5.834,18.706-22.04,18.706h-25.93
		c-16.206,0-21.947-4.908-21.947-18.706v-48.711c0-1.389,0.647-2.037,2.037-2.037H272.331z M274.368,262.39
		c0,7.871,2.13,9.815,10.094,9.815h23.337c8.057,0,10.187-1.944,10.187-9.815v-8.242c0-7.779-2.13-9.816-10.187-9.816h-33.431
		V262.39z"/>
	<path style="fill:#162836;stroke:#162836;stroke-miterlimit:10;" d="M353.267,214.235c1.297,0,2.038,0.648,2.038,2.037v65.38
		c0,1.389-0.741,2.037-2.038,2.037h-9.075c-1.389,0-2.037-0.648-2.037-2.037v-65.38c0-1.389,0.648-2.037,2.037-2.037H353.267z"/>
	<path style="fill:#162836;stroke:#162836;stroke-miterlimit:10;" d="M414.202,232.848c12.409,0,16.021,3.704,16.021,15.188v9.538
		c0,3.797-1.574,5.187-5.278,5.187h-46.766v1.667c0,5.834,2.222,7.778,10.187,7.778h38.616c1.111,0,1.667,0.556,1.667,1.667v8.149
		c0,1.111-0.556,1.667-1.667,1.667h-39.913c-16.392,0-22.04-5.001-22.04-18.706v-13.428c0-13.613,5.648-18.707,22.04-18.707H414.202
		z M415.591,253.222c1.111,0,1.574-0.556,1.574-1.575v-3.241c0-3.611-1.111-4.537-5.648-4.537h-23.151
		c-8.242,0-10.187,1.667-10.187,7.501v1.853H415.591z"/>
</g>
</svg>
