<?xml version="1.0" encoding="utf-8"?>
<!-- Generator: Adobe Illustrator 25.4.1, SVG Export Plug-In . SVG Version: 6.00 Build 0)  -->
<svg version="1.1" id="Logo_x5F_vector_x5F_BG" xmlns="http://www.w3.org/2000/svg" xmlns:xlink="http://www.w3.org/1999/xlink"
	 x="0px" y="0px" viewBox="0 0 498.654 314.152" style="enable-background:new 0 0 498.654 314.152;" xml:space="preserve">
<rect style="fill:#162836;" width="498.654" height="314.152"/>
<linearGradient id="SVGID_1_" gradientUnits="userSpaceOnUse" x1="153.6685" y1="112.2643" x2="334.2644" y2="112.2643">
	<stop  offset="0.0022" style="stop-color:#2EDECC"/>
	<stop  offset="1" style="stop-color:#23A799"/>
</linearGradient>
<path style="fill:url(#SVGID_1_);" d="M153.668,49.59v128.311c0.014,13.654,7.846,19.649,21.416,20.022h20.602V66.652h66.835
	c15.365,0,28.938,14.257,29.52,31.948c0.869,26.416-19.806,37.002-33.347,37.002h-29.59c-11.276,1.076-17.733,6.98-18.542,18.542
	v43.781h32.846v-25.09c13.865,0,9.207,0,23.072,0c12.993,0.111,67.784-20.203,67.784-74.235c0-64.074-46.731-71.992-56.374-71.992
	H176.652C160.764,26.445,153.738,34.709,153.668,49.59z"/>
<g>
	<path style="fill:#FFFFFF;stroke:#FFFFFF;stroke-width:2.0071;stroke-miterlimit:10;" d="M84.341,236.072
		c14.169,0,19.911,6.575,19.911,18.984v6.945c0,12.502-5.742,19.354-19.911,19.354H46.003v17.503c0,1.389-0.648,2.037-2.038,2.037
		H33.963c-1.389,0-2.037-0.648-2.037-2.037v-60.009c0-1.852,0.926-2.778,2.778-2.778H84.341z M81.47,268.577
		c6.297,0,8.612-2.5,8.612-7.964v-3.52c0-5.556-2.315-8.057-8.612-8.057H47.206c-0.833,0-1.204,0.371-1.204,1.111v18.429H81.47z"/>
	<path style="fill:#FFFFFF;stroke:#FFFFFF;stroke-width:2.0071;stroke-miterlimit:10;" d="M154.259,250.056
		c16.391,0,22.04,5.094,22.04,18.707v24.726c0,5.927-1.389,7.408-6.853,7.408h-44.08c-10.65,0-14.261-3.611-14.261-13.15v-4.444
		c0-8.612,4.26-12.78,14.261-12.78h37.783v-0.926c0-5.927-2.223-8.057-10.187-8.057h-38.617c-1.111,0-1.667-0.556-1.667-1.667
		v-8.149c0-1.111,0.556-1.667,1.667-1.667H154.259z M163.149,286.82v-6.76h-33.894c-3.982,0-5.094,1.111-5.094,3.889v1.945
		c0,3.148,1.111,3.981,5.094,3.981h31.022C162.316,289.876,163.149,289.043,163.149,286.82z"/>
	<path style="fill:#FFFFFF;stroke:#FFFFFF;stroke-width:2.0071;stroke-miterlimit:10;" d="M197.414,231.257
		c1.389,0,2.037,0.648,2.037,2.037v8.798c0,1.39-0.648,2.13-2.037,2.13h-9.076c-1.389,0-2.037-0.74-2.037-2.13v-8.798
		c0-1.389,0.648-2.037,2.037-2.037H197.414z M197.414,250.056c1.296,0,2.037,0.741,2.037,2.038v46.766
		c0,1.389-0.741,2.037-2.037,2.037h-9.076c-1.389,0-2.037-0.648-2.037-2.037v-46.766c0-1.297,0.648-2.038,2.037-2.038H197.414z"/>
	<path style="fill:#FFFFFF;stroke:#FFFFFF;stroke-width:2.0071;stroke-miterlimit:10;" d="M252.328,250.056
		c16.392,0,22.04,5.094,22.04,18.707v24.726c0,5.927-1.389,7.408-6.853,7.408h-44.08c-10.649,0-14.261-3.611-14.261-13.15v-4.444
		c0-8.612,4.26-12.78,14.261-12.78h37.783v-0.926c0-5.927-2.223-8.057-10.187-8.057h-38.617c-1.111,0-1.667-0.556-1.667-1.667
		v-8.149c0-1.111,0.556-1.667,1.667-1.667H252.328z M261.218,286.82v-6.76h-33.894c-3.982,0-5.094,1.111-5.094,3.889v1.945
		c0,3.148,1.111,3.981,5.094,3.981h31.022C260.384,289.876,261.218,289.043,261.218,286.82z"/>
	<path style="fill:#FFFFFF;stroke:#FFFFFF;stroke-width:2.0071;stroke-miterlimit:10;" d="M295.205,231.442
		c1.389,0,2.037,0.648,2.037,2.037v16.576h34.728c16.206,0,22.04,4.908,22.04,18.707v13.428c0,13.798-5.834,18.706-22.04,18.706
		h-25.93c-16.206,0-21.947-4.908-21.947-18.706v-48.711c0-1.389,0.647-2.037,2.037-2.037H295.205z M297.242,279.598
		c0,7.871,2.13,9.815,10.094,9.815h23.337c8.057,0,10.187-1.944,10.187-9.815v-8.242c0-7.779-2.13-9.816-10.187-9.816h-33.431
		V279.598z"/>
	<path style="fill:#FFFFFF;stroke:#FFFFFF;stroke-width:2.0071;stroke-miterlimit:10;" d="M376.141,231.442
		c1.297,0,2.038,0.648,2.038,2.037v65.38c0,1.389-0.741,2.037-2.038,2.037h-9.075c-1.389,0-2.037-0.648-2.037-2.037v-65.38
		c0-1.389,0.648-2.037,2.037-2.037H376.141z"/>
	<path style="fill:#FFFFFF;stroke:#FFFFFF;stroke-width:2.0071;stroke-miterlimit:10;" d="M437.076,250.056
		c12.409,0,16.021,3.704,16.021,15.188v9.538c0,3.797-1.574,5.187-5.278,5.187h-46.766v1.667c0,5.834,2.222,7.778,10.187,7.778
		h38.616c1.111,0,1.667,0.556,1.667,1.667v8.149c0,1.111-0.556,1.667-1.667,1.667h-39.913c-16.392,0-22.04-5.001-22.04-18.706
		v-13.428c0-13.613,5.648-18.707,22.04-18.707H437.076z M438.464,270.43c1.111,0,1.574-0.556,1.574-1.575v-3.241
		c0-3.611-1.111-4.537-5.648-4.537h-23.151c-8.242,0-10.187,1.667-10.187,7.501v1.853H438.464z"/>
</g>
</svg>
